<svg width="36.000000" height="36.000000" viewBox="0 0 36 36" fill="none" xmlns="http://www.w3.org/2000/svg" xmlns:xlink="http://www.w3.org/1999/xlink">
	<desc>
			Created with Pixso.
	</desc>
	<defs>
		<clipPath id="clip540_12330">
			<rect id="training-achievement-medal-svgrepo-com 1" rx="-0.500000" width="35.000000" height="35.000000" transform="translate(0.500000 0.500000)" fill="white" fill-opacity="0"/>
		</clipPath>
	</defs>
	<rect id="training-achievement-medal-svgrepo-com 1" rx="-0.500000" width="35.000000" height="35.000000" transform="translate(0.500000 0.500000)" fill="#FFFFFF" fill-opacity="0"/>
	<g clip-path="url(#clip540_12330)">
		<path id="Vector" d="M28.48 10.53C28.56 10.74 28.71 10.92 28.89 11.05C29.08 11.18 29.3 11.24 29.53 11.25C29.67 11.24 29.8 11.22 29.93 11.17C30.21 11.06 30.43 10.84 30.55 10.57C30.67 10.3 30.68 9.99 30.57 9.71C30.05 8.38 29.32 7.14 28.41 6.04C28.22 5.83 27.95 5.7 27.66 5.68C27.38 5.66 27.1 5.75 26.88 5.94C26.65 6.12 26.51 6.38 26.47 6.66C26.44 6.95 26.51 7.23 26.68 7.46C27.44 8.38 28.05 9.42 28.48 10.53ZM24.75 5.62C25.04 5.62 25.33 5.5 25.54 5.29C25.75 5.08 25.87 4.79 25.87 4.5C25.87 4.34 25.83 4.19 25.77 4.06C25.7 3.92 25.61 3.8 25.5 3.7C25.4 3.59 25.29 3.51 25.16 3.45C25.03 3.4 24.89 3.37 24.75 3.37C24.45 3.37 24.16 3.49 23.95 3.7C23.74 3.91 23.62 4.2 23.62 4.5C23.62 4.66 23.66 4.82 23.74 4.96C23.81 5.11 23.91 5.24 24.04 5.34C24.23 5.51 24.48 5.61 24.75 5.62ZM10.12 14.62C10.12 16.18 10.58 17.7 11.45 19C12.31 20.29 13.54 21.3 14.98 21.9C16.42 22.49 18 22.65 19.53 22.34C21.06 22.04 22.46 21.29 23.56 20.19C24.66 19.09 25.41 17.68 25.72 16.16C26.02 14.63 25.87 13.05 25.27 11.61C24.67 10.17 23.67 8.94 22.37 8.07C21.08 7.21 19.55 6.75 18 6.75C15.91 6.75 13.9 7.57 12.43 9.05C10.95 10.53 10.12 12.53 10.12 14.62ZM23.62 14.62C23.62 15.73 23.29 16.82 22.67 17.75C22.05 18.67 21.18 19.39 20.15 19.82C19.12 20.24 17.99 20.35 16.9 20.14C15.81 19.92 14.8 19.38 14.02 18.6C13.23 17.81 12.7 16.81 12.48 15.72C12.26 14.63 12.37 13.5 12.8 12.47C13.22 11.44 13.94 10.56 14.87 9.94C15.79 9.32 16.88 9 18 9C19.49 9 20.92 9.59 21.97 10.64C23.03 11.7 23.62 13.13 23.62 14.62Z" fill="#E60C0B" fill-opacity="1.000000" fill-rule="nonzero"/>
		<path id="Vector" d="M34.54 29.57L28.3 23.33C30.37 20.9 31.5 17.81 31.5 14.62C31.5 14.32 31.38 14.04 31.17 13.82C30.96 13.61 30.67 13.5 30.37 13.5C30.07 13.5 29.79 13.61 29.58 13.82C29.36 14.04 29.25 14.32 29.25 14.62C29.24 16.45 28.8 18.25 27.94 19.87C27.09 21.49 25.85 22.87 24.34 23.9L23.22 24.58C21.61 25.42 19.82 25.87 18 25.87C16.18 25.87 14.39 25.42 12.79 24.58L11.66 23.9C9.47 22.39 7.89 20.15 7.19 17.59C6.49 15.02 6.73 12.29 7.85 9.87C8.98 7.46 10.92 5.53 13.34 4.42C15.76 3.31 18.49 3.09 21.06 3.8C21.2 3.85 21.36 3.87 21.51 3.86C21.66 3.85 21.82 3.81 21.95 3.74C22.09 3.67 22.21 3.57 22.31 3.45C22.41 3.33 22.48 3.19 22.52 3.05C22.56 2.9 22.58 2.74 22.55 2.59C22.53 2.43 22.48 2.29 22.4 2.15C22.32 2.02 22.21 1.91 22.09 1.82C21.96 1.73 21.81 1.67 21.66 1.64C18.89 0.86 15.93 1 13.24 2.02C10.54 3.05 8.25 4.91 6.68 7.33C5.12 9.76 4.38 12.62 4.56 15.5C4.75 18.38 5.85 21.12 7.7 23.33L1.45 29.57C1.29 29.73 1.18 29.93 1.14 30.15C1.09 30.37 1.11 30.6 1.2 30.8C1.29 31.01 1.43 31.18 1.62 31.31C1.8 31.43 2.02 31.5 2.25 31.5L5.94 31.5L6.8 34.11C6.86 34.29 6.97 34.45 7.11 34.58C7.25 34.71 7.42 34.8 7.61 34.85L7.87 34.87C8.02 34.87 8.17 34.84 8.3 34.79C8.44 34.73 8.56 34.65 8.67 34.54L15.35 27.86C17.1 28.21 18.89 28.21 20.64 27.86L27.32 34.54C27.43 34.65 27.55 34.73 27.69 34.79C27.83 34.84 27.97 34.87 28.12 34.87L28.38 34.87C28.57 34.83 28.74 34.73 28.88 34.6C29.02 34.47 29.13 34.31 29.19 34.13L30.06 31.5L33.75 31.5C33.97 31.5 34.19 31.43 34.37 31.31C34.56 31.18 34.71 31.01 34.79 30.8C34.88 30.6 34.9 30.37 34.86 30.15C34.81 29.93 34.7 29.73 34.54 29.57ZM12.81 27.22L8.31 31.72L7.76 30.08C7.7 29.85 7.57 29.65 7.39 29.5C7.2 29.35 6.98 29.26 6.75 29.25L4.96 29.25L9.16 25.04L10.41 25.78C10.83 26.06 11.25 26.31 11.7 26.55L12.81 27.22ZM29.25 29.25C29.01 29.24 28.78 29.32 28.59 29.46C28.4 29.59 28.25 29.79 28.18 30.01L27.63 31.65L23.13 27.15L24.25 26.49C24.69 26.26 25.12 26 25.53 25.72L26.78 24.98L31.03 29.25L29.25 29.25Z" fill="#E60C0B" fill-opacity="1.000000" fill-rule="nonzero"/>
	</g>
</svg>
