<svg width="36.000732" height="30.267578" viewBox="0 0 36.0007 30.2676" fill="none" xmlns="http://www.w3.org/2000/svg" xmlns:xlink="http://www.w3.org/1999/xlink">
	<desc>
			Created with Pixso.
	</desc>
	<defs/>
	<path id="Vector" d="M20.01 2.02C20.01 3.13 19.11 4.04 17.99 4.04C16.88 4.04 15.97 3.13 15.97 2.02C15.97 0.9 16.88 0 17.99 0C19.11 0 20.01 0.9 20.01 2.02Z" fill="#E60C0B" fill-opacity="1.000000" fill-rule="evenodd"/>
	<path id="Vector" d="M20.25 4.84L15.74 4.84C14.15 4.84 12.85 6.14 12.85 7.73L12.85 13.39C12.87 13.97 13.35 14.42 13.93 14.41C14.49 14.4 14.94 13.95 14.95 13.39L14.95 8.31L15.58 8.31L15.58 23.8C15.59 24.38 16.08 24.84 16.65 24.82C17.22 24.81 17.67 24.36 17.68 23.8L17.68 15.19L18.31 15.19L18.31 23.8C18.3 24.38 18.75 24.86 19.33 24.87C19.91 24.89 20.39 24.43 20.41 23.85C20.41 23.83 20.41 23.82 20.41 23.8L20.41 8.31L21.04 8.31L21.04 13.39C21.05 13.96 21.53 14.42 22.11 14.41C22.67 14.4 23.12 13.95 23.14 13.39L23.14 7.73C23.13 6.14 21.84 4.85 20.25 4.84Z" fill="#E60C0B" fill-opacity="1.000000" fill-rule="nonzero"/>
	<path id="Vector" d="M7.16 7.4C7.16 8.52 6.25 9.42 5.14 9.42C4.02 9.42 3.12 8.52 3.12 7.4C3.12 6.29 4.02 5.38 5.14 5.38C6.25 5.38 7.16 6.29 7.16 7.4Z" fill="#E60C0B" fill-opacity="1.000000" fill-rule="evenodd"/>
	<path id="Vector" d="M7.39 10.23L2.88 10.23C1.29 10.23 0 11.52 0 13.12L0 18.77C0.01 19.35 0.49 19.81 1.07 19.8C1.63 19.79 2.08 19.33 2.09 18.77L2.09 13.7L2.72 13.7L2.72 29.19C2.74 29.77 3.22 30.23 3.8 30.21C4.36 30.2 4.81 29.75 4.82 29.19L4.82 20.58L5.45 20.58L5.45 29.19C5.44 29.77 5.9 30.25 6.48 30.26C7.06 30.28 7.54 29.82 7.55 29.24C7.55 29.22 7.55 29.2 7.55 29.19L7.55 13.7L8.18 13.7L8.18 18.77C8.19 19.35 8.67 19.81 9.25 19.8C9.81 19.79 10.27 19.33 10.28 18.77L10.28 13.12C10.27 11.52 8.98 10.24 7.39 10.23Z" fill="#E60C0B" fill-opacity="1.000000" fill-rule="nonzero"/>
	<path id="Vector" d="M32.87 7.4C32.87 8.52 31.97 9.42 30.85 9.42C29.74 9.42 28.83 8.52 28.83 7.4C28.83 6.29 29.74 5.38 30.85 5.38C31.97 5.38 32.87 6.29 32.87 7.4Z" fill="#E60C0B" fill-opacity="1.000000" fill-rule="evenodd"/>
	<path id="Vector" d="M33.11 10.23L28.6 10.23C27 10.23 25.71 11.53 25.71 13.12L25.71 18.77C25.7 19.35 26.16 19.83 26.74 19.85C27.32 19.86 27.8 19.4 27.81 18.82C27.81 18.81 27.81 18.79 27.81 18.77L27.81 13.7L28.44 13.7L28.44 29.19C28.43 29.77 28.89 30.25 29.47 30.26C30.05 30.28 30.53 29.82 30.54 29.24C30.54 29.22 30.54 29.2 30.54 29.19L30.54 20.58L31.17 20.58L31.17 29.19C31.18 29.77 31.66 30.23 32.24 30.21C32.8 30.2 33.25 29.75 33.27 29.19L33.27 13.7L33.9 13.7L33.9 18.77C33.91 19.35 34.39 19.81 34.97 19.8C35.53 19.79 35.98 19.33 36 18.77L36 13.12C35.99 11.52 34.7 10.24 33.11 10.23Z" fill="#E60C0B" fill-opacity="1.000000" fill-rule="nonzero"/>
</svg>
