<svg width="36.000000" height="36.000000" viewBox="0 0 36 36" fill="none" xmlns="http://www.w3.org/2000/svg" xmlns:xlink="http://www.w3.org/1999/xlink">
	<desc>
			Created with Pixso.
	</desc>
	<defs>
		<clipPath id="clip559_12572">
			<rect id="guarantee" rx="-0.500000" width="35.000000" height="35.000000" transform="translate(0.500000 0.500000)" fill="white" fill-opacity="0"/>
		</clipPath>
	</defs>
	<rect id="guarantee" rx="-0.500000" width="35.000000" height="35.000000" transform="translate(0.500000 0.500000)" fill="#FFFFFF" fill-opacity="0"/>
	<g clip-path="url(#clip559_12572)">
		<path id="Vector" d="M34.07 12.75C33.59 11.28 33.79 9.07 32.56 7.37C31.32 5.65 29.15 5.16 27.93 4.27C26.72 3.38 25.59 1.46 23.56 0.79C21.58 0.15 19.56 1.03 18 1.03C16.43 1.03 14.41 0.15 12.43 0.79C10.4 1.46 9.27 3.38 8.06 4.27C6.84 5.16 4.67 5.65 3.43 7.37C2.2 9.07 2.4 11.28 1.92 12.75C1.47 14.15 0 15.82 0 18C0 20.17 1.47 21.84 1.92 23.24C2.4 24.71 2.2 26.92 3.43 28.62C4.67 30.34 6.84 30.83 8.06 31.72C9.27 32.61 10.4 34.53 12.43 35.2C14.41 35.84 16.43 34.97 18 34.97C19.56 34.97 21.59 35.84 23.56 35.2C25.59 34.53 26.72 32.61 27.93 31.72C29.15 30.83 31.32 30.34 32.56 28.62C33.79 26.92 33.59 24.71 34.07 23.24C34.52 21.84 36 20.17 36 18C36 15.82 34.52 14.15 34.07 12.75ZM31.39 22.37C30.84 24.09 30.98 26.01 30.28 26.97C29.57 27.95 27.71 28.4 26.27 29.45C24.85 30.49 23.85 32.14 22.69 32.52C21.59 32.88 19.8 32.15 18 32.15C16.17 32.15 14.4 32.88 13.3 32.52C12.14 32.14 11.15 30.49 9.72 29.45C8.29 28.41 6.42 27.95 5.71 26.97C5.01 26.01 5.15 24.08 4.6 22.37C4.06 20.7 2.81 19.26 2.81 18C2.81 16.73 4.06 15.29 4.6 13.62C5.15 11.9 5.01 9.98 5.71 9.02C6.42 8.04 8.28 7.59 9.72 6.54C11.15 5.49 12.14 3.85 13.3 3.47C14.4 3.11 16.19 3.84 17.99 3.84C19.82 3.84 21.58 3.11 22.69 3.47C23.85 3.85 24.84 5.5 26.27 6.54C27.7 7.58 29.57 8.04 30.28 9.02C30.98 9.98 30.84 11.91 31.39 13.62L31.39 13.62C31.93 15.29 33.18 16.73 33.18 18C33.18 19.26 31.93 20.7 31.39 22.37ZM24.47 13.48C25.02 14.03 25.02 14.92 24.47 15.47L17.44 22.51C16.89 23.06 16 23.06 15.45 22.51L11.52 18.58C10.97 18.03 10.97 17.14 11.52 16.59C12.07 16.04 12.96 16.04 13.5 16.59L16.44 19.53L22.48 13.48C23.03 12.93 23.92 12.93 24.47 13.48Z" fill="#E60C0B" fill-opacity="1.000000" fill-rule="nonzero"/>
	</g>
</svg>
