<svg width="36.000000" height="36.000000" viewBox="0 0 36 36" fill="none" xmlns="http://www.w3.org/2000/svg" xmlns:xlink="http://www.w3.org/1999/xlink">
	<desc>
			Created with Pixso.
	</desc>
	<defs>
		<clipPath id="clip540_12405">
			<rect id="delivery-fast-svgrepo-com 1" rx="-0.500000" width="35.000000" height="35.000000" transform="translate(0.500000 0.500000)" fill="white" fill-opacity="0"/>
		</clipPath>
	</defs>
	<rect id="delivery-fast-svgrepo-com 1" rx="-0.500000" width="35.000000" height="35.000000" transform="translate(0.500000 0.500000)" fill="#FFFFFF" fill-opacity="0"/>
	<g clip-path="url(#clip540_12405)">
		<path id="Vector" d="M28.27 8.32C28.06 8.06 27.8 7.86 27.5 7.72C27.2 7.57 26.88 7.5 26.54 7.5L25.64 7.5L25.87 6.22C25.91 5.92 25.89 5.61 25.82 5.31C25.74 5.02 25.6 4.74 25.42 4.5C24.99 4.04 24.4 3.77 23.77 3.75L5.84 3.75C5.45 3.75 5.07 3.9 4.78 4.18C4.5 4.47 4.34 4.85 4.34 5.25C4.34 5.64 4.5 6.02 4.78 6.31C5.07 6.59 5.45 6.75 5.84 6.75L22.72 6.75L19.72 23.92C19.38 24.4 19.13 24.93 18.97 25.5L15.52 25.5C15.19 24.42 14.53 23.47 13.62 22.8C12.72 22.13 11.62 21.77 10.49 21.77C9.37 21.77 8.27 22.13 7.37 22.8C6.46 23.47 5.8 24.42 5.47 25.5L4.64 25.5L5.02 23.32C5.09 22.93 5 22.53 4.77 22.21C4.55 21.89 4.21 21.67 3.82 21.6C3.43 21.53 3.03 21.62 2.71 21.84C2.39 22.07 2.17 22.41 2.09 22.8L1.49 26.02C1.45 26.33 1.47 26.64 1.56 26.94C1.65 27.24 1.81 27.51 2.02 27.75C2.21 27.98 2.45 28.16 2.73 28.29C3 28.42 3.29 28.49 3.59 28.5L5.47 28.5C5.8 29.57 6.46 30.52 7.37 31.19C8.27 31.86 9.37 32.22 10.49 32.22C11.62 32.22 12.72 31.86 13.62 31.19C14.53 30.52 15.19 29.57 15.52 28.5L18.97 28.5C19.3 29.57 19.96 30.52 20.87 31.19C21.77 31.86 22.87 32.22 23.99 32.22C25.12 32.22 26.22 31.86 27.12 31.19C28.03 30.52 28.69 29.57 29.02 28.5L30.52 28.5C31.08 28.48 31.63 28.28 32.05 27.91C32.48 27.54 32.76 27.03 32.84 26.47L34.49 16.87L28.27 8.32ZM10.49 29.25C9.9 29.25 9.33 29.01 8.9 28.59C8.48 28.16 8.24 27.59 8.24 27C8.24 26.4 8.48 25.83 8.9 25.4C9.33 24.98 9.9 24.75 10.49 24.75C11.09 24.75 11.66 24.98 12.09 25.4C12.51 25.83 12.74 26.4 12.74 27C12.74 27.59 12.51 28.16 12.09 28.59C11.66 29.01 11.09 29.25 10.49 29.25ZM25.12 10.5L26.09 10.5L30.52 16.5L24.07 16.5L25.12 10.5ZM23.99 29.25C23.4 29.25 22.83 29.01 22.4 28.59C21.98 28.16 21.74 27.59 21.74 27C21.74 26.4 21.98 25.83 22.4 25.4C22.83 24.98 23.4 24.75 23.99 24.75C24.59 24.75 25.16 24.98 25.59 25.4C26.01 25.83 26.24 26.4 26.24 27C26.24 27.59 26.01 28.16 25.59 28.59C25.16 29.01 24.59 29.25 23.99 29.25ZM29.99 25.5L29.02 25.5C28.7 24.41 28.03 23.46 27.13 22.79C26.22 22.11 25.12 21.75 23.99 21.75L23.17 21.75L23.54 19.42L30.97 19.42L29.99 25.5Z" fill="#E60C0B" fill-opacity="1.000000" fill-rule="nonzero"/>
		<path id="Vector" d="M3 11.25L10.5 11.25C10.89 11.25 11.27 11.09 11.56 10.81C11.84 10.52 12 10.14 12 9.75C12 9.35 11.84 8.97 11.56 8.68C11.27 8.4 10.89 8.25 10.5 8.25L3 8.25C2.6 8.25 2.22 8.4 1.93 8.68C1.65 8.97 1.5 9.35 1.5 9.75C1.5 10.14 1.65 10.52 1.93 10.81C2.22 11.09 2.6 11.25 3 11.25Z" fill="#E60C0B" fill-opacity="1.000000" fill-rule="nonzero"/>
		<path id="Vector" d="M11.25 14.25C11.25 13.85 11.09 13.47 10.81 13.18C10.52 12.9 10.14 12.75 9.75 12.75L3.75 12.75C3.35 12.75 2.97 12.9 2.68 13.18C2.4 13.47 2.25 13.85 2.25 14.25C2.25 14.64 2.4 15.02 2.68 15.31C2.97 15.59 3.35 15.75 3.75 15.75L9.75 15.75C10.14 15.75 10.52 15.59 10.81 15.31C11.09 15.02 11.25 14.64 11.25 14.25Z" fill="#E60C0B" fill-opacity="1.000000" fill-rule="nonzero"/>
		<path id="Vector" d="M4.5 17.25C4.1 17.25 3.72 17.4 3.43 17.68C3.15 17.97 3 18.35 3 18.75C3 19.14 3.15 19.52 3.43 19.81C3.72 20.09 4.1 20.25 4.5 20.25L9 20.25C9.39 20.25 9.77 20.09 10.06 19.81C10.34 19.52 10.5 19.14 10.5 18.75C10.5 18.35 10.34 17.97 10.06 17.68C9.77 17.4 9.39 17.25 9 17.25L4.5 17.25Z" fill="#E60C0B" fill-opacity="1.000000" fill-rule="nonzero"/>
	</g>
</svg>
