<svg width="24.000000" height="24.000000" viewBox="0 0 24 24" fill="none" xmlns="http://www.w3.org/2000/svg" xmlns:xlink="http://www.w3.org/1999/xlink">
	<desc>
			Created with Pixso.
	</desc>
	<defs>
		<clipPath id="clip15_21312">
			<rect id="instagram-logo-svgrepo-com 1" rx="-0.500000" width="23.000000" height="23.000000" transform="translate(0.500000 0.500000)" fill="white" fill-opacity="0"/>
		</clipPath>
	</defs>
	<rect id="instagram-logo-svgrepo-com 1" rx="-0.500000" width="23.000000" height="23.000000" transform="translate(0.500000 0.500000)" fill="#FFFFFF" fill-opacity="0"/>
	<g clip-path="url(#clip15_21312)">
		<path id="Vector" d="M17.37 0L6.62 0C2.97 0 0 2.97 0 6.62L0 17.37C0 21.02 2.97 24 6.62 24L17.37 24C21.02 24 23.99 21.02 23.99 17.37L23.99 6.62C24 2.97 21.02 0 17.37 0ZM21.87 17.37C21.87 19.85 19.85 21.87 17.37 21.87L6.62 21.87C4.14 21.87 2.12 19.85 2.12 17.37L2.12 6.62C2.12 4.14 4.14 2.12 6.62 2.12L17.37 2.12C19.85 2.12 21.87 4.14 21.87 6.62L21.87 17.37L21.87 17.37Z" fill="#FFFFFF" fill-opacity="1.000000" fill-rule="nonzero"/>
		<path id="Vector" d="M12 5.81C8.59 5.81 5.81 8.59 5.81 12C5.81 15.41 8.59 18.18 12 18.18C15.41 18.18 18.18 15.41 18.18 12C18.18 8.59 15.41 5.81 12 5.81ZM12 16.05C9.76 16.05 7.94 14.23 7.94 12C7.94 9.76 9.76 7.94 12 7.94C14.23 7.94 16.05 9.76 16.05 12C16.05 14.23 14.23 16.05 12 16.05Z" fill="#FFFFFF" fill-opacity="1.000000" fill-rule="nonzero"/>
		<path id="Vector" d="M18.44 4.01C18.03 4.01 17.63 4.17 17.34 4.46C17.05 4.75 16.88 5.16 16.88 5.57C16.88 5.98 17.05 6.38 17.34 6.67C17.63 6.96 18.03 7.13 18.44 7.13C18.85 7.13 19.25 6.96 19.54 6.67C19.83 6.38 20 5.98 20 5.57C20 5.16 19.83 4.75 19.54 4.46C19.25 4.17 18.85 4.01 18.44 4.01Z" fill="#FFFFFF" fill-opacity="1.000000" fill-rule="nonzero"/>
	</g>
</svg>
